<?xml version="1.0" encoding="UTF-8" standalone="no"?>
<svg
   xmlns:dc="http://purl.org/dc/elements/1.1/"
   xmlns:cc="http://creativecommons.org/ns#"
   xmlns:rdf="http://www.w3.org/1999/02/22-rdf-syntax-ns#"
   xmlns:svg="http://www.w3.org/2000/svg"
   xmlns="http://www.w3.org/2000/svg"
   xmlns:sodipodi="http://sodipodi.sourceforge.net/DTD/sodipodi-0.dtd"
   xmlns:inkscape="http://www.inkscape.org/namespaces/inkscape"
   height="480px"
   style="zoom: 1;"
   cursor="default"
   id="svg_document"
   width="480px"
   version="1.1"
   preserveAspectRatio="xMidYMid meet"
   viewBox="0 0 480 480"
   sodipodi:docname="reload_ok.svg"
   inkscape:version="0.92.2 (5c3e80d, 2017-08-06)"
   inkscape:export-xdpi="3.2"
   inkscape:export-ydpi="3.2">
  <metadata
     id="metadata50">
    <rdf:RDF>
      <cc:Work
         rdf:about="">
        <dc:format>image/svg+xml</dc:format>
        <dc:type
           rdf:resource="http://purl.org/dc/dcmitype/StillImage" />
      </cc:Work>
    </rdf:RDF>
  </metadata>
  <sodipodi:namedview
     pagecolor="#ffffff"
     bordercolor="#666666"
     borderopacity="1"
     objecttolerance="10"
     gridtolerance="10"
     guidetolerance="10"
     inkscape:pageopacity="0"
     inkscape:pageshadow="2"
     inkscape:window-width="1920"
     inkscape:window-height="1052"
     id="namedview48"
     showgrid="false"
     showguides="true"
     inkscape:guide-bbox="true"
     inkscape:zoom="1.3906433"
     inkscape:cx="227.52495"
     inkscape:cy="192.56666"
     inkscape:window-x="1920"
     inkscape:window-y="0"
     inkscape:window-maximized="1"
     inkscape:current-layer="svg_document">
    <sodipodi:guide
       position="240,501.61017"
       orientation="1,0"
       id="guide4551"
       inkscape:locked="false" />
    <sodipodi:guide
       position="-13.752628,239.99684"
       orientation="0,1"
       id="guide4553"
       inkscape:locked="false" />
  </sodipodi:namedview>
  <title
     id="svg_document_title">Untitled.svg</title>
  <defs
     id="svg_document_defs" />
  <g
     id="main_group">
    <rect
       x="0"
       height="480"
       y="0"
       id="background_rect"
       width="480"
       style="fill:#2c4770" />
    <circle
       id="circle1"
       cy="642"
       r="1"
       cx="131"
       style="fill:#ffffff;stroke:#000000;stroke-width:3px" />
    <text
       id="sample_text_element"
       style="font-size:335.77597046px;font-family:ArialRoundedMTBold;text-anchor:middle;fill:#7689a9;stroke-width:1.67887998;text-rendering:geometricPrecision"
       xml:space="preserve"
       x="226.43837"
       y="326.22989"
       font-size="200px"><tspan
         style="font-style:normal;font-variant:normal;font-weight:normal;font-stretch:normal;font-size:322.3449707px;font-family:Dyuthi;-inkscape-font-specification:Dyuthi;stroke-width:1.67887998"
         id="tspan4549">OK</tspan></text>
  </g>
  <svg
     x="0px"
     y="0px"
     id="Capa_1"
     xml:space="preserve"
     version="1.1"
     viewBox="0 0 489.711 489.711"
     width="100%"
     height="100%"><g
       id="g14"><g
         id="g12"><path
           d="m 112.39955,97.423141 c 72.3,-65.4 180.5,-66.4 253.8,-6.7 l -58.1,2.2 c -7.5,0.3 -13.3,6.5 -13,13.999999 0.3,7.3 6.3,13 13.5,13 0.2,0 0.3,0 0.5,0 l 89.2,-3.3 c 7.3,-0.3 13,-6.2 13,-13.5 v -1 c 0,-0.2 0,-0.3 0,-0.5 v -0.1 0 l -3.3,-88.199999 c -0.3,-7.5 -6.6,-13.3 -14,-13 -7.5,0.3 -13.3,6.5 -13,14 l 2.1,55.3 c -36.3,-29.7 -81,-46.9 -128.8,-49.3 -59.2,-3 -116.1,17.3 -160.000003,57.1 -60.4,54.699999 -86.0000002,137.899999 -66.8,217.099999 1.5,6.2 7,10.3 13.1,10.3 1.1,0 2.1,-0.1 3.2,-0.4 7.2,-1.8 11.7,-9.1 9.9,-16.3 C 36.899493,218.52319 59.299472,145.42313 112.39955,97.423141 Z"
           id="path8"
           inkscape:connector-curvature="0"
           style="fill:#7689a9;fill-opacity:1" /><path
           d="m 462.6992,195.82312 c -1.8,-7.2 -9.1,-11.7 -16.3,-9.9 -7.2,1.8 -11.7,9.1 -9.9,16.3 16.9,69.6 -5.6,142.7 -58.7,190.7 -37.3,33.7 -84.1,50.3 -130.7,50.3 -44.5,0 -88.9,-15.1 -124.7,-44.9 l 58.8,-5.3 c 7.4,-0.7 12.9,-7.2 12.2,-14.7 -0.7,-7.5 -7.2,-12.9 -14.7,-12.2 l -88.900001,8 c -7.4,0.7 -12.9,7.2 -12.2,14.7 l 8,88.9 c 0.6,7 6.5,12.3 13.4,12.3 0.4,0 0.8,0 1.200001,-0.1 7.4,-0.7 12.9,-7.2 12.2,-14.7 l -4.8,-54.1 c 36.3,29.4 80.8,46.5 128.3,48.9 3.8,0.2 7.6,0.3 11.3,0.3 55.1,0 107.5,-20.2 148.7,-57.4 60.39998,-54.6997 86.00008,-137.79968 66.8,-217.1 z"
           id="path10"
           inkscape:connector-curvature="0"
           style="fill:#7689a9;fill-opacity:1" /></g></g><g
       id="g16" /><g
       id="g18" /><g
       id="g20" /><g
       id="g22" /><g
       id="g24" /><g
       id="g26" /><g
       id="g28" /><g
       id="g30" /><g
       id="g32" /><g
       id="g34" /><g
       id="g36" /><g
       id="g38" /><g
       id="g40" /><g
       id="g42" /><g
       id="g44" /></svg></svg>
